<?xml version="1.0" standalone="no"?>
<!DOCTYPE svg PUBLIC "-//W3C//DTD SVG 20010904//EN"
 "http://www.w3.org/TR/2001/REC-SVG-20010904/DTD/svg10.dtd">
<svg version="1.0" xmlns="http://www.w3.org/2000/svg"
 width="865.000000pt" height="883.000000pt" viewBox="0 0 865.000000 883.000000"
 preserveAspectRatio="xMidYMid meet">

<g transform="translate(0.000000,883.000000) scale(0.100000,-0.100000)"
fill="#000000" stroke="none">
<path d="M0 4415 l0 -4415 4325 0 4325 0 0 4415 0 4415 -4325 0 -4325 0 0
-4415z m4240 2070 l0 -1985 -915 0 -915 0 0 48 c0 26 5 137 10 247 68 1394
493 2630 1119 3255 216 216 388 325 621 396 41 13 76 23 78 23 1 1 2 -892 2
-1984z m634 1919 c80 -34 151 -74 261 -148 113 -76 344 -305 445 -440 271
-364 502 -858 646 -1376 31 -113 67 -243 80 -289 13 -46 42 -183 63 -305 85
-479 119 -784 127 -1133 l4 -213 -915 0 -915 0 0 1984 0 1985 71 -20 c39 -11
99 -31 133 -45z m948 -140 c1053 -366 1939 -1195 2383 -2230 195 -454 304
-915 331 -1406 l7 -128 -820 0 -820 0 -7 163 c-40 950 -210 1783 -509 2482
-193 454 -413 812 -705 1148 -22 25 -8 22 140 -29z m-2618 14 c-4 -13 -42 -66
-86 -118 -99 -119 -205 -270 -299 -425 -72 -119 -234 -437 -279 -547 -13 -32
-28 -54 -33 -51 -6 4 -8 0 -4 -10 3 -10 2 -17 -4 -17 -6 0 -7 -4 -4 -10 3 -5
1 -10 -6 -10 -7 0 -9 -3 -6 -7 4 -3 3 -11 -2 -17 -17 -20 -149 -370 -186 -491
-148 -488 -267 -1257 -302 -1947 l-6 -128 -810 0 -810 0 7 123 c75 1360 813
2588 1976 3288 231 138 551 287 800 372 60 21 62 20 54 -5z m-1204 -4195 c1
-130 48 -619 86 -883 61 -429 108 -637 239 -1055 193 -611 457 -1122 796
-1535 73 -89 94 -120 77 -115 -67 20 -308 115 -413 162 -869 392 -1572 1068
-1985 1907 -224 456 -339 832 -400 1314 -11 84 -20 171 -20 192 l0 40 810 0
810 0 0 -27z m2240 -1872 l0 -1900 -67 19 c-221 61 -418 185 -628 395 -281
279 -514 660 -703 1145 -239 617 -398 1424 -424 2158 l-3 82 912 0 913 0 0
-1899z m2255 1827 c-3 -40 -10 -152 -16 -248 -20 -335 -52 -565 -130 -940 -65
-310 -118 -518 -183 -714 -200 -604 -470 -1081 -795 -1406 -217 -217 -407
-337 -633 -400 l-68 -19 0 1900 0 1899 915 0 915 0 -5 -72z m2035 32 c0 -62
-37 -335 -65 -478 -113 -578 -368 -1151 -733 -1647 -481 -652 -1162 -1149
-1962 -1431 -52 -18 -96 -32 -98 -29 -2 2 29 41 68 87 564 650 958 1671 1100
2848 23 198 50 526 50 621 l0 69 820 0 820 0 0 -40z"/>
</g>
</svg>
